<svg xmlns="http://www.w3.org/2000/svg" viewBox="0 0 170.9 80.2"><title>nhm-logo-white</title><path d="M68.7,79.7V18.6a32,32,0,0,0-.5-6.2C66.4,4.3,60.1,0,49.8,0H46.4V34.2L23.1.1H.3V61.2a32,32,0,0,0,.5,6.2c1.8,8.1,8.1,12.4,18.4,12.4h3.4V45L46.2,79.8l22.5-.1M4,3.8H21L50.1,46.5V3.6h.7c7.2,0,12,3.2,13.5,9.3a22.87,22.87,0,0,1,.6,6.1V76H48.2L18.8,32.7V76.2h-.7c-7.2,0-12-3.2-13.5-9.3A22.87,22.87,0,0,1,4,60.8V3.8ZM126.3,51.6c0,5.1,2.2,8.2,7.2,8.2s7.2-3.1,7.2-8.2-2.2-8.2-7.2-8.2-7.2,3.1-7.2,8.2m30.4,7.8a13.66,13.66,0,0,1-1.9.2c-2.1,0-2.9-.8-3.5-2.1l-2-4h-1.9v5.9h-4V43.8h6.5c3.9,0,5.9,1.9,5.9,4.9a4.17,4.17,0,0,1-2.6,4.2ZM144.5,39a9.74,9.74,0,0,1-1.6.1c-2.2,0-2.7-.7-3.2-2l-1.5-4h-1.8V39h-3.9V23.4h6.1c3.9,0,5.9,1.9,5.9,4.9a4.38,4.38,0,0,1-2.7,4.3ZM85.8,33a26.27,26.27,0,0,0-2.2-4.5l-1.8-2.9c-1-1.7-1.6-2.2-3.2-2.2H76.8V39h3.6V29.3h.1a28.08,28.08,0,0,0,2.3,4.6l1.9,3.2c.9,1.5,1.5,1.9,3.1,1.9h1.7V23.4H85.9L85.8,33Zm.4,26.4V52.9H80.9v6.5h-4V43.8h4v6h5.3v-6h4V59.4ZM101.3,39l-.7-2.7H95.9L95.3,39H91.4l4-15.6h5.3L105.3,39Zm54,0-.6-2.7H150l-.6,2.7h-3.9l4.2-15.6H155L159.4,39ZM125.6,23.4h3.9V33.8c0,4.2-2.9,5.5-6.1,5.5s-6.1-1.3-6.1-5.5V23.4h.9c2.2,0,3,1.1,3,3.1v7.2c0,1.7.7,2.5,2.2,2.5s2.2-.8,2.2-2.5V23.4ZM106.4,59.7a9.6,9.6,0,0,1-6.4-2.2l1.6-2.7a7.38,7.38,0,0,0,4.6,1.8c1.5,0,2.6-.4,2.6-1.5,0-2.7-8.2-1.4-8.2-7,0-3.3,2.8-4.8,5.8-4.8a8.42,8.42,0,0,1,5.6,1.9l-1.4,2.7a7.28,7.28,0,0,0-4.2-1.6c-1.3,0-2,.5-2,1.3,0,2.7,8.2,1.4,8.2,7,.1,3.3-2.6,5.1-6.2,5.1m-16.9,7v13h2.1V64.1H88.8L84.3,74.4,79.8,64.1H77V79.7h2v-13h0a23.83,23.83,0,0,0,1.3,3.6l3.3,7.3h1.2l3.3-7.3a27.37,27.37,0,0,0,1.4-3.6Zm74.4-16.3,2.9-6.6h4.4l-5.3,10.4v5.2h-4V54.2l-5.3-10.4H161l2.9,6.6Zm-46.2,9V47h-3.9V43.8h12v.7c0,1.7-.7,2.4-2.8,2.4h-1.3V59.3l-4,.1ZM108.2,39V26.5h-3.7V23.3h11.4V24c0,1.7-.7,2.4-2.8,2.4h-1V38.8A25.49,25.49,0,0,1,108.2,39ZM161,39V23.4h3.9V35.8h5.6V39H161ZM147.2,65.8c0-1.2.5-1.7,1.6-1.7h.4V74.4c0,4.1-3.1,5.6-5.8,5.6s-5.8-1.5-5.8-5.6V64.1h2.1V74.3c0,2.9,1.8,3.9,3.8,3.9a3.53,3.53,0,0,0,3.8-3.9V65.8Zm-49.8,0c0-1.2-.5-1.7-1.6-1.7h-.4V74.4c0,4.1,3.1,5.6,5.8,5.6s5.8-1.5,5.8-5.6V64.1h-2V74.3c0,2.9-1.8,3.9-3.8,3.9s-3.8-1-3.8-3.9V65.8Zm12.9,2.3c0,5.4,8.5,3.6,8.5,7.6,0,1.7-1.5,2.7-3.7,2.7a5.87,5.87,0,0,1-4.5-1.9L109.4,78a8.17,8.17,0,0,0,5.8,2.2c3.2,0,6-1.4,6-4.6,0-5.5-8.7-3.9-8.7-7.6,0-1.5,1.2-2.4,3.1-2.4a6,6,0,0,1,4.3,1.8l1.3-1.3a7.45,7.45,0,0,0-5.5-2.2c-3.5-.1-5.4,1.6-5.4,4.2m16.4,4.2h6.6V70.6h-6.6V65.8h6c1.2,0,1.7-.5,1.7-1.4v-.3h-9.8V79.7h10.1V78h-8V72.3Zm-33-28.5h4V59.4h-4Zm42.9,7.8c0,3.3-.7,5-3,5s-3-1.7-3-5,.7-5,3-5,3,1.7,3,5m10.8-4.8v3.7h2.2c1.6,0,2.1-.9,2.1-1.9s-.6-1.8-2.2-1.8Zm-11-20.4v3.7h2.1c1.6,0,2.1-.9,2.1-1.9s-.6-1.8-2.2-1.8Zm-38.3-.1-1.5,6.9h3.2l-1.7-6.9Zm54.1,0-1.6,6.9h3.2l-1.6-6.9Zm13.5,40.4v13h2.1V64.1H165l-4.5,10.3L156,64.1h-2.8V79.7h2.1v-13h.1a23.83,23.83,0,0,0,1.3,3.6l3.3,7.3h1.2l3.3-7.3c.6-1.6.9-2.8,1.2-3.6Z" transform="translate(-0.3)" fill="#fff"/></svg>